<!-- 波波拳角色 SVG 素材 -->
<svg xmlns="http://www.w3.org/2000/svg" style="display:none">
  
  <!-- 1. 波波 - 充气大师 -->
  <symbol id="char-bobo" viewBox="0 0 100 100">
    <ellipse cx="50" cy="65" rx="25" ry="20" fill="#ff6b6b"/>
    <circle cx="50" cy="35" r="22" fill="#ffd93d"/>
    <circle cx="43" cy="32" r="4" fill="#333"/>
    <circle cx="57" cy="32" r="4" fill="#333"/>
    <circle cx="75" cy="25" r="15" fill="#ff6b9d" opacity="0.8"/>
    <path d="M75 40 Q75 50 70 55" stroke="#ff6b9d" stroke-width="2" fill="none"/>
    <ellipse cx="50" cy="45" rx="8" ry="5" fill="#ff8fab"/>
    <ellipse cx="25" cy="55" rx="8" ry="12" fill="#ffd93d"/>
    <ellipse cx="75" cy="55" rx="8" ry="12" fill="#ffd93d"/>
  </symbol>

  <!-- 2. 铁拳 - 格斗王者 -->
  <symbol id="char-fist" viewBox="0 0 100 100">
    <rect x="30" y="45" width="40" height="35" rx="5" fill="#e74c3c"/>
    <rect x="35" y="50" width="30" height="5" fill="#c0392b"/>
    <rect x="35" y="60" width="30" height="5" fill="#c0392b"/>
    <circle cx="50" cy="30" r="20" fill="#f39c12"/>
    <rect x="30" y="20" width="40" height="8" fill="#e74c3c"/>
    <path d="M40 28 L48 32" stroke="#333" stroke-width="3"/>
    <path d="M60 28 L52 32" stroke="#333" stroke-width="3"/>
    <circle cx="25" cy="60" r="12" fill="#f39c12"/>
    <circle cx="75" cy="60" r="12" fill="#f39c12"/>
    <rect x="20" y="55" width="10" height="3" fill="#e67e22"/>
    <rect x="70" y="55" width="10" height="3" fill="#e67e22"/>
  </symbol>

  <!-- 3. 影 - 瞬身忍者 -->
  <symbol id="char-ninja" viewBox="0 0 100 100">
    <path d="M30 80 L50 45 L70 80 Z" fill="#2c3e50"/>
    <path d="M35 35 Q50 25 65 35 L65 50 L35 50 Z" fill="#34495e"/>
    <path d="M65 40 L85 35 L80 45 Z" fill="#e74c3c"/>
    <ellipse cx="43" cy="42" rx="5" ry="3" fill="#fff"/>
    <ellipse cx="57" cy="42" rx="5" ry="3" fill="#fff"/>
    <circle cx="43" cy="42" r="1.5" fill="#333"/>
    <circle cx="57" cy="42" r="1.5" fill="#333"/>
    <path d="M80 60 L90 50 L95 55 L85 65 Z" fill="#95a5a6"/>
    <rect x="87" y="62" width="3" height="15" fill="#7f8c8d"/>
    <path d="M20 55 L25 45 L30 55 L25 65 Z" fill="#bdc3c7"/>
  </symbol>

  <!-- 4. 魔导 - 元素法师 -->
  <symbol id="char-mage" viewBox="0 0 100 100">
    <path d="M25 85 L35 40 L50 35 L65 40 L75 85 Z" fill="#9b59b6"/>
    <path d="M30 35 L50 5 L70 35 Z" fill="#8e44ad"/>
    <ellipse cx="50" cy="35" rx="22" ry="5" fill="#9b59b6"/>
    <circle cx="50" cy="30" r="12" fill="#f5d0c5"/>
    <circle cx="46" cy="28" r="2" fill="#333"/>
    <circle cx="54" cy="28" r="2" fill="#333"/>
    <path d="M45 35 Q50 42 55 35" stroke="#ecf0f1" stroke-width="2" fill="none"/>
    <rect x="75" y="30" width="4" height="50" fill="#8b4513"/>
    <circle cx="77" cy="25" r="8" fill="#3498db"/>
    <circle cx="77" cy="25" r="4" fill="#85c1e9"/>
    <circle cx="20" cy="30" r="2" fill="#e74c3c"/>
    <circle cx="15" cy="45" r="1.5" fill="#f39c12"/>
    <circle cx="25" cy="20" r="1.5" fill="#2ecc71"/>
  </symbol>

  <!-- 5. 血族 - 暗夜伯爵 -->
  <symbol id="char-vampire" viewBox="0 0 100 100">
    <path d="M20 85 L30 40 L70 40 L80 85 Q50 75 20 85" fill="#8e44ad"/>
    <rect x="35" y="45" width="30" height="35" fill="#2c3e50"/>
    <path d="M42 50 L58 50 L50 60 Z" fill="#c0392b"/>
    <ellipse cx="50" cy="30" rx="18" ry="20" fill="#f5d0c5"/>
    <path d="M32 25 Q50 10 68 25 L68 35 Q50 25 32 35 Z" fill="#2c3e50"/>
    <ellipse cx="44" cy="30" rx="4" ry="5" fill="#e74c3c"/>
    <ellipse cx="56" cy="30" rx="4" ry="5" fill="#e74c3c"/>
    <circle cx="44" cy="30" r="1.5" fill="#000"/>
    <circle cx="56" cy="30" r="1.5" fill="#000"/>
    <path d="M47 40 L49 45 L51 40" fill="#fff"/>
    <path d="M53 40 L51 45 L49 40" fill="#fff"/>
    <path d="M75 20 Q80 15 85 20 Q90 15 95 20 L90 30 L85 25 L80 30 Z" fill="#2c3e50"/>
  </symbol>

  <!-- 6. 机甲 - 钢铁战士 -->
  <symbol id="char-robot" viewBox="0 0 100 100">
    <rect x="25" y="40" width="50" height="45" rx="5" fill="#7f8c8d"/>
    <rect x="30" y="45" width="40" height="35" fill="#95a5a6"/>
    <rect x="35" y="50" width="30" height="8" fill="#3498db" opacity="0.5"/>
    <rect x="35" y="62" width="30" height="8" fill="#3498db" opacity="0.5"/>
    <rect x="40" y="15" width="20" height="25" rx="3" fill="#34495e"/>
    <rect x="42" y="20" width="16" height="15" fill="#2c3e50"/>
    <rect x="44" y="23" width="4" height="6" fill="#3498db"/>
    <rect x="52" y="23" width="4" height="6" fill="#3498db"/>
    <rect x="15" y="50" width="10" height="25" rx="3" fill="#7f8c8d"/>
    <rect x="75" y="50" width="10" height="25" rx="3" fill="#7f8c8d"/>
    <circle cx="20" cy="85" r="6" fill="#2c3e50"/>
    <circle cx="80" cy="85" r="6" fill="#2c3e50"/>
    <rect x="18" y="40" width="4" height="15" fill="#7f8c8d"/>
    <rect x="78" y="40" width="4" height="15" fill="#7f8c8d"/>
  </symbol>

  <!-- 7. 赌徒 - 命运之手 -->
  <symbol id="char-gambler" viewBox="0 0 100 100">
    <ellipse cx="50" cy="70" rx="20" ry="18" fill="#27ae60"/>
    <circle cx="50" cy="35" r="20" fill="#f5d0c5"/>
    <ellipse cx="44" cy="32" rx="3" ry="4" fill="#333"/>
    <ellipse cx="56" cy="32" rx="3" ry="4" fill="#333"/>
    <path d="M45 42 Q50 48 55 42" stroke="#333" stroke-width="2" fill="none"/>
    <rect x="30" y="15" width="40" height="12" rx="3" fill="#2c3e50"/>
    <rect x="32" y="17" width="36" height="8" fill="#34495e"/>
    <rect x="70" y="50" width="20" height="30" rx="3" fill="#ecf0f1"/>
    <circle cx="80" cy="58" r="4" fill="#e74c3c"/>
    <circle cx="80" cy="72" r="4" fill="#2c3e50"/>
    <rect x="72" y="52" width="4" height="26" fill="#bdc3c7"/>
    <rect x="84" y="52" width="4" height="26" fill="#bdc3c7"/>
    <rect x="72" y="52" width="16" height="4" fill="#bdc3c7"/>
    <rect x="72" y="74" width="16" height="4" fill="#bdc3c7"/>
    <circle cx="25" cy="45" r="8" fill="#f39c12"/>
    <text x="25" y="49" text-anchor="middle" font-size="10" fill="#fff">$</text>
  </symbol>

  <!-- 8. 巨像 - 不动堡垒 -->
  <symbol id="char-tank" viewBox="0 0 100 100">
    <rect x="20" y="35" width="60" height="55" rx="5" fill="#5d6d7e"/>
    <rect x="25" y="40" width="50" height="45" fill="#85929e"/>
    <rect x="30" y="45" width="40" height="10" fill="#34495e"/>
    <rect x="30" y="60" width="40" height="10" fill="#34495e"/>
    <rect x="30" y="75" width="40" height="5" fill="#34495e"/>
    <rect x="35" y="10" width="30" height="25" rx="3" fill="#5d6d7e"/>
    <rect x="38" y="15" width="24" height="15" fill="#2c3e50"/>
    <rect x="42" y="18" width="6" height="6" fill="#e74c3c"/>
    <rect x="52" y="18" width="6" height="6" fill="#e74c3c"/>
    <rect x="10" y="45" width="10" height="40" rx="3" fill="#5d6d7e"/>
    <rect x="80" y="45" width="10" height="40" rx="3" fill="#5d6d7e"/>
    <circle cx="15" cy="85" r="8" fill="#2c3e50"/>
    <circle cx="85" cy="85" r="8" fill="#2c3e50"/>
    <rect x="12" y="35" width="6" height="15" fill="#5d6d7e"/>
    <rect x="82" y="35" width="6" height="15" fill="#5d6d7e"/>
  </symbol>

  <!-- 出招图标 -->
  <symbol id="move-rock" viewBox="0 0 60 60">
    <circle cx="30" cy="30" r="25" fill="#e74c3c"/>
    <path d="M20 25 L25 20 L30 25 L35 20 L40 25 L40 40 L20 40 Z" fill="#c0392b"/>
    <circle cx="22" cy="22" r="3" fill="#f39c12"/>
    <circle cx="38" cy="22" r="3" fill="#f39c12"/>
  </symbol>

  <symbol id="move-scissors" viewBox="0 0 60 60">
    <circle cx="30" cy="30" r="25" fill="#3498db"/>
    <path d="M25 20 L30 35 L35 20" stroke="#2980b9" stroke-width="4" fill="none"/>
    <circle cx="25" cy="18" r="4" fill="#ecf0f1"/>
    <circle cx="35" cy="18" r="4" fill="#ecf0f1"/>
    <circle cx="30" cy="40" r="5" fill="#ecf0f1"/>
  </symbol>

  <symbol id="move-paper" viewBox="0 0 60 60">
    <circle cx="30" cy="30" r="25" fill="#2ecc71"/>
    <rect x="20" y="20" width="20" height="25" rx="2" fill="#27ae60"/>
    <line x1="24" y1="26" x2="36" y2="26" stroke="#2ecc71" stroke-width="2"/>
    <line x1="24" y1="32" x2="36" y2="32" stroke="#2ecc71" stroke-width="2"/>
    <line x1="24" y1="38" x2="32" y2="38" stroke="#2ecc71" stroke-width="2"/>
  </symbol>

  <!-- 大招图标 -->
  <symbol id="super-impact" viewBox="0 0 60 60">
    <circle cx="30" cy="30" r="25" fill="#e74c3c"/>
    <path d="M30 10 L35 25 L50 25 L38 35 L42 50 L30 40 L18 50 L22 35 L10 25 L25 25 Z" fill="#f39c12"/>
    <circle cx="30" cy="30" r="15" fill="none" stroke="#fff" stroke-width="2" opacity="0.5"/>
  </symbol>

  <symbol id="super-shield" viewBox="0 0 60 60">
    <circle cx="30" cy="30" r="25" fill="#3498db"/>
    <path d="M30 12 Q45 12 45 30 Q45 48 30 52 Q15 48 15 30 Q15 12 30 12" fill="#2980b9"/>
    <path d="M30 18 Q40 18 40 30 Q40 44 30 46 Q20 44 20 30 Q20 18 30 18" fill="#5dade2"/>
  </symbol>

  <symbol id="super-steal" viewBox="0 0 60 60">
    <circle cx="30" cy="30" r="25" fill="#9b59b6"/>
    <path d="M20 25 Q30 15 40 25 Q40 35 30 40 Q20 35 20 25" fill="#8e44ad"/>
    <circle cx="30" cy="28" r="5" fill="#f39c12"/>
    <path d="M30 35 L30 45" stroke="#f39c12" stroke-width="3"/>
    <path d="M25 40 L35 40" stroke="#f39c12" stroke-width="3"/>
  </symbol>

</svg>